<mxfile host="65bd71144e">
    <diagram id="lVRS-8-r0L5nzX_-wtyD" name="Page-1">
        <mxGraphModel dx="1904" dy="1108" grid="1" gridSize="10" guides="1" tooltips="1" connect="1" arrows="1" fold="1" page="1" pageScale="1" pageWidth="850" pageHeight="1100" math="0" shadow="0">
            <root>
                <mxCell id="0"/>
                <mxCell id="1" parent="0"/>
                <mxCell id="3" value="" style="rounded=0;whiteSpace=wrap;html=1;fillStyle=solid;fillColor=#FFFFFF;" vertex="1" parent="1">
                    <mxGeometry x="80" y="175" width="1160" height="750" as="geometry"/>
                </mxCell>
                <mxCell id="L4rPo0Bt-5A7sKbJBc_X-1" value="&lt;font color=&quot;#000000&quot;&gt;&amp;nbsp;Collective &lt;br style=&quot;font-size: 58px;&quot;&gt;&amp;nbsp;Robotics&lt;/font&gt;" style="ellipse;whiteSpace=wrap;html=1;rounded=0;shadow=0;strokeWidth=7;fillColor=#d5e8d4;fontSize=58;align=left;fontFamily=Times New Roman;fontStyle=1;strokeColor=#000000;opacity=50;" parent="1" vertex="1">
                    <mxGeometry x="141" y="200" width="720" height="700" as="geometry"/>
                </mxCell>
                <mxCell id="L4rPo0Bt-5A7sKbJBc_X-2" value="&lt;font color=&quot;#000000&quot;&gt;Swarm&amp;nbsp;&amp;nbsp;&lt;br style=&quot;font-size: 58px;&quot;&gt;Intelligence&amp;nbsp;&amp;nbsp;&lt;/font&gt;" style="ellipse;whiteSpace=wrap;html=1;rounded=0;shadow=0;strokeWidth=7;fillColor=#ffe6cc;fontSize=58;align=right;fontFamily=Times New Roman;fontStyle=1;strokeColor=#000000;opacity=50;" parent="1" vertex="1">
                    <mxGeometry x="480" y="200" width="720" height="700" as="geometry"/>
                </mxCell>
                <mxCell id="L4rPo0Bt-5A7sKbJBc_X-3" value="Swarm Robotics" style="text;html=1;strokeColor=none;fillColor=none;align=center;verticalAlign=middle;whiteSpace=wrap;rounded=0;fontFamily=Times New Roman;fontSize=58;fontStyle=1;fontColor=#000000;" parent="1" vertex="1">
                    <mxGeometry x="630" y="520" width="60" height="30" as="geometry"/>
                </mxCell>
            </root>
        </mxGraphModel>
    </diagram>
</mxfile>